<svg width="1024" height="1024" viewBox="0 0 1024 1024" fill="none" xmlns="http://www.w3.org/2000/svg">
    <path d="M232 158C416.062 158 602.175 158 791.814 158C791.814 271.808 792.125 271.334 791.943 323.073C791.932 328.454 791.923 333.834 791.915 339.214C791.893 351.947 791.859 364.681 791.814 377.414C790.511 377.417 789.208 377.42 787.865 377.424C756.025 377.5 724.184 377.621 692.344 377.792C676.946 377.873 661.548 377.939 646.149 377.97C632.714 377.997 619.279 378.053 605.844 378.142C598.743 378.188 591.642 378.22 584.541 378.218C544.756 378.219 513.266 380.31 478.072 399.971C483.968 398.227 483.968 398.227 487.981 395.782C501.377 389.868 518.289 393.264 531.516 398.225C535.649 400.041 539.661 402.041 543.692 404.072C543.979 457.655 544.196 511.237 544.329 564.821C544.392 589.702 544.479 614.582 544.62 639.463C544.743 661.155 544.822 682.847 544.849 704.539C544.865 716.02 544.903 727.5 544.992 738.98C545.076 749.799 545.102 760.617 545.083 771.437C545.087 775.395 545.111 779.352 545.158 783.31C545.433 807.478 544.544 827.688 527.879 846.958C516.072 858.632 500.407 863.81 484.096 864.432C461.508 863.536 447.172 851.783 432.318 835.724C424.019 823.429 421.798 813.38 421.939 798.866C421.93 797.169 421.922 795.473 421.914 793.726C421.894 788.07 421.918 782.415 421.943 776.759C421.938 772.693 421.93 768.626 421.92 764.559C421.901 753.53 421.92 742.502 421.947 731.473C421.97 719.915 421.962 708.358 421.958 696.8C421.956 677.383 421.979 657.966 422.017 638.549C422.06 616.134 422.067 593.72 422.054 571.305C422.043 549.713 422.054 528.121 422.077 506.529C422.087 497.355 422.089 488.182 422.084 479.009C422.08 468.19 422.097 457.371 422.13 446.552C422.138 442.593 422.14 438.635 422.134 434.676C422.087 396.292 422.087 396.292 426.807 377.414C424.622 377.477 422.436 377.539 420.184 377.603C357.411 379.334 294.831 379.465 232 379.465C232 306.382 232 233.298 232 158Z"
          fill="#28BDB4"/>
    <path d="M533.353 399.242C537.486 401.059 541.703 403.059 545.734 405.09C546.021 458.672 546.033 512.255 546.166 565.838C546.229 590.719 546.316 615.6 546.457 640.48C546.58 662.173 546.659 683.864 546.686 705.557C546.702 717.037 546.74 728.517 546.829 739.997C546.913 750.817 546.939 761.635 546.92 772.454C546.924 776.412 546.948 780.37 546.995 784.327C547.27 808.496 546.381 828.706 529.716 847.976C517.909 859.649 502.244 864.827 485.933 865.45C463.345 864.553 449.009 852.8 434.155 836.742C425.812 824.382 423.638 814.32 423.803 799.731C423.798 798.019 423.793 796.307 423.787 794.543C423.777 788.835 423.811 783.127 423.845 777.419C423.846 773.315 423.845 769.212 423.842 765.109C423.84 753.988 423.876 742.868 423.919 731.748C423.958 720.119 423.961 708.491 423.969 696.862C423.988 674.85 424.038 652.838 424.1 630.827C424.169 605.763 424.203 580.7 424.233 555.637C424.298 504.087 422.569 514.064 422.706 462.514L426.01 458.405C426.863 456.355 436.765 442.165 440.948 433.798C451.077 419.969 462.832 410.939 478.072 403.047L481.96 400.989L487.3 398.946C487.3 398.946 518.167 393.548 533.353 399.242Z"
          fill="#2BC1B5"/>
    <path d="M579.921 256.196C583.314 256.196 583.314 256.196 586.776 256.195C594.221 256.197 601.666 256.213 609.111 256.229C614.285 256.232 619.46 256.235 624.635 256.237C636.842 256.244 649.05 256.261 661.258 256.281C678.971 256.31 696.685 256.321 714.398 256.334C739.178 256.354 767.034 256.393 791.814 256.429C791.814 296.354 791.814 336.44 791.814 377.575C773.52 377.627 752.149 377.52 733.3 377.575C720.184 377.633 707.068 377.696 693.952 377.767C676.992 377.857 660.033 377.936 643.073 377.97C629.638 377.997 616.203 378.053 602.768 378.142C595.667 378.188 588.566 378.22 581.465 378.218C539.779 377.879 539.779 377.879 499.604 387.667C497.306 388.529 497.306 388.529 494.962 389.408C464.134 402.174 441.909 422.872 427.921 452.95C425.782 457.388 426.191 457.388 422.089 463.54C421.883 453.919 421.328 444.3 421.23 434.678C421.19 431.421 421.134 428.164 421.062 424.908C421.062 395.87 423.423 368.085 437.445 342.042C438.146 340.699 438.846 339.356 439.568 337.972C457.327 304.954 484.595 275.577 521.114 264.197C541.004 258.361 559.191 256.124 579.921 256.196Z"
          fill="#424242"/>
    <path d="M232 158C347.039 158 462.078 158 580.602 158C575.978 162.624 574.079 163.004 567.834 164.312C565.192 164.89 565.192 164.89 562.497 165.48C560.605 165.888 558.713 166.295 556.764 166.715C480.859 184.028 417.527 227.035 373.492 291.289C371.684 293.914 371.684 293.914 369.839 296.592C363.349 306.707 358.524 317.404 353.883 328.456C353.331 329.764 352.779 331.073 352.211 332.42C345.97 347.857 341.592 363.431 336.581 379.465C302.069 379.465 267.557 379.465 232 379.465C232 306.382 232 233.298 232 158Z"
          fill="#424242"/>
    <path d="M591.804 377.455C598.963 377.507 606.123 377.511 613.282 377.52C626.789 377.546 640.296 377.613 653.803 377.696C669.201 377.788 684.158 377.414 699.978 377.575C731.322 377.414 760.185 377.231 791.815 377.414C791.815 378.091 791.791 379.665 791.791 380.362C709.91 380.362 630.104 380.49 545.742 380.49C545.742 388.611 545.742 397.756 545.742 406.123C540.616 403.047 536.511 400.996 530.36 399.689C511.904 396.895 500.626 397.92 485.759 400.843C481.541 401.672 462.267 408.992 459.191 411.043C462.693 406.123 480.123 395.87 486.522 393.18C521.135 376.389 553.711 377.131 591.804 377.455Z"
          fill="#376266"/>
</svg>
